<svg width="1400" height="820" viewBox="0 0 1400 820" fill="none" xmlns="http://www.w3.org/2000/svg">
  <rect width="1400" height="820" rx="40" fill="#FDFCF8"/>
  <rect x="28" y="28" width="1344" height="764" rx="30" fill="#FFFDF9" stroke="#1F2A37" stroke-width="5"/>
  <path d="M68 110C250 80 470 94 648 110C835 127 1025 122 1324 110" stroke="#D8E2EA" stroke-width="3" stroke-linecap="round" stroke-dasharray="8 14"/>
  <text x="84" y="120" fill="#1F2A37" font-size="44" font-family="Comic Sans MS, Marker Felt, cursive">LLM 生成流程</text>

  <rect x="90" y="210" width="210" height="120" rx="24" fill="#EAF4FF" stroke="#0F6CBD" stroke-width="4"/>
  <text x="128" y="260" fill="#0F6CBD" font-size="38" font-family="Comic Sans MS, Marker Felt, cursive">Prompt</text>
  <text x="132" y="303" fill="#44515E" font-size="24" font-family="IBM Plex Sans, sans-serif">今天天气很好，我想去</text>

  <rect x="365" y="210" width="210" height="120" rx="24" fill="#F7FAFC" stroke="#1F2A37" stroke-width="4"/>
  <text x="422" y="260" fill="#1F2A37" font-size="38" font-family="Comic Sans MS, Marker Felt, cursive">Token</text>
  <text x="403" y="303" fill="#44515E" font-size="24" font-family="IBM Plex Sans, sans-serif">["今天", "天气", ...]</text>

  <rect x="640" y="210" width="240" height="120" rx="24" fill="#FFF4D8" stroke="#D97706" stroke-width="4"/>
  <text x="676" y="260" fill="#B45309" font-size="38" font-family="Comic Sans MS, Marker Felt, cursive">Embedding</text>
  <text x="697" y="303" fill="#6B7280" font-size="24" font-family="IBM Plex Sans, sans-serif">把词变成向量</text>

  <rect x="945" y="210" width="280" height="120" rx="24" fill="#EEFBEA" stroke="#2E7D32" stroke-width="4"/>
  <text x="987" y="260" fill="#2E7D32" font-size="38" font-family="Comic Sans MS, Marker Felt, cursive">Attention</text>
  <text x="986" y="303" fill="#4B5563" font-size="24" font-family="IBM Plex Sans, sans-serif">决定“谁该关注谁”</text>

  <path d="M302 270C325 270 344 270 360 270" stroke="#1F2A37" stroke-width="5" stroke-linecap="round"/>
  <path d="M345 252L366 270L345 288" stroke="#1F2A37" stroke-width="5" stroke-linecap="round" stroke-linejoin="round"/>
  <path d="M578 270C600 270 620 270 635 270" stroke="#1F2A37" stroke-width="5" stroke-linecap="round"/>
  <path d="M620 252L641 270L620 288" stroke="#1F2A37" stroke-width="5" stroke-linecap="round" stroke-linejoin="round"/>
  <path d="M883 270C905 270 925 270 940 270" stroke="#1F2A37" stroke-width="5" stroke-linecap="round"/>
  <path d="M925 252L946 270L925 288" stroke="#1F2A37" stroke-width="5" stroke-linecap="round" stroke-linejoin="round"/>

  <rect x="145" y="470" width="1110" height="210" rx="32" fill="#FFFFFF" stroke="#1F2A37" stroke-width="4"/>
  <text x="186" y="525" fill="#1F2A37" font-size="40" font-family="Comic Sans MS, Marker Felt, cursive">Next token 概率分布</text>

  <path d="M210 590H1120" stroke="#CBD5E1" stroke-width="3" stroke-linecap="round"/>
  <rect x="260" y="548" width="120" height="42" rx="21" fill="#EAF4FF"/>
  <text x="289" y="577" fill="#0F6CBD" font-size="26" font-family="Comic Sans MS, Marker Felt, cursive">公园</text>
  <rect x="410" y="560" width="190" height="18" rx="9" fill="#0F6CBD"/>
  <text x="620" y="578" fill="#44515E" font-size="26" font-family="IBM Plex Sans, sans-serif">0.35</text>

  <rect x="260" y="608" width="120" height="42" rx="21" fill="#FFF4D8"/>
  <text x="289" y="637" fill="#B45309" font-size="26" font-family="Comic Sans MS, Marker Felt, cursive">散步</text>
  <rect x="410" y="620" width="146" height="18" rx="9" fill="#D97706"/>
  <text x="580" y="638" fill="#44515E" font-size="26" font-family="IBM Plex Sans, sans-serif">0.24</text>

  <rect x="260" y="668" width="120" height="42" rx="21" fill="#EEFBEA"/>
  <text x="289" y="697" fill="#2E7D32" font-size="26" font-family="Comic Sans MS, Marker Felt, cursive">打球</text>
  <rect x="410" y="680" width="98" height="18" rx="9" fill="#2E7D32"/>
  <text x="530" y="698" fill="#44515E" font-size="26" font-family="IBM Plex Sans, sans-serif">0.16</text>

  <path d="M1050 485C1120 435 1230 446 1270 506" stroke="#E11D48" stroke-width="5" stroke-linecap="round"/>
  <text x="1120" y="438" fill="#E11D48" font-size="30" font-family="Comic Sans MS, Marker Felt, cursive">本质: 预测下一个 token</text>
</svg>
